<mxfile host="app.diagrams.net" modified="2023-04-17T03:36:35.666Z" agent="Mozilla/5.0 (Windows NT 10.0; Win64; x64) AppleWebKit/537.36 (KHTML, like Gecko) Chrome/111.0.0.0 Safari/537.36" etag="56HoUeQVBRppGT0tbKM9" version="21.1.5" type="github">
  <diagram id="prtHgNgQTEPvFCAcTncT" name="Page-1">
    <mxGraphModel dx="1434" dy="788" grid="1" gridSize="10" guides="1" tooltips="1" connect="1" arrows="1" fold="1" page="1" pageScale="1" pageWidth="827" pageHeight="1169" math="0" shadow="0">
      <root>
        <mxCell id="0" />
        <mxCell id="1" parent="0" />
        <mxCell id="tl_C-uJfs4DL0yEq4bah-1" value="重点工作" style="swimlane;html=1;childLayout=stackLayout;startSize=20;rounded=0;shadow=0;labelBackgroundColor=none;strokeWidth=1;fontFamily=Verdana;fontSize=8;align=center;" vertex="1" parent="1">
          <mxGeometry x="70" y="40" width="480" height="1190" as="geometry" />
        </mxCell>
        <mxCell id="tl_C-uJfs4DL0yEq4bah-2" value="办公室专责" style="swimlane;html=1;startSize=20;" vertex="1" parent="tl_C-uJfs4DL0yEq4bah-1">
          <mxGeometry y="20" width="160" height="1170" as="geometry" />
        </mxCell>
        <mxCell id="tl_C-uJfs4DL0yEq4bah-3" style="edgeStyle=orthogonalEdgeStyle;rounded=0;orthogonalLoop=1;jettySize=auto;html=1;exitX=0.5;exitY=1;exitDx=0;exitDy=0;entryX=0.5;entryY=0;entryDx=0;entryDy=0;entryPerimeter=0;" edge="1" parent="tl_C-uJfs4DL0yEq4bah-2" source="tl_C-uJfs4DL0yEq4bah-4" target="tl_C-uJfs4DL0yEq4bah-5">
          <mxGeometry relative="1" as="geometry" />
        </mxCell>
        <mxCell id="tl_C-uJfs4DL0yEq4bah-4" value="开始" style="ellipse;whiteSpace=wrap;html=1;aspect=fixed;" vertex="1" parent="tl_C-uJfs4DL0yEq4bah-2">
          <mxGeometry x="40" y="50" width="80" height="80" as="geometry" />
        </mxCell>
        <mxCell id="tl_C-uJfs4DL0yEq4bah-5" value="创建并下发重点工作主题" style="strokeWidth=2;html=1;shape=mxgraph.flowchart.document2;whiteSpace=wrap;size=0.25;fontStyle=0" vertex="1" parent="tl_C-uJfs4DL0yEq4bah-2">
          <mxGeometry x="30" y="175" width="100" height="90" as="geometry" />
        </mxCell>
        <mxCell id="tl_C-uJfs4DL0yEq4bah-46" value="" style="edgeStyle=orthogonalEdgeStyle;rounded=0;orthogonalLoop=1;jettySize=auto;html=1;" edge="1" parent="tl_C-uJfs4DL0yEq4bah-2" source="tl_C-uJfs4DL0yEq4bah-44" target="tl_C-uJfs4DL0yEq4bah-45">
          <mxGeometry relative="1" as="geometry" />
        </mxCell>
        <mxCell id="tl_C-uJfs4DL0yEq4bah-44" value="审批" style="rhombus;whiteSpace=wrap;html=1;" vertex="1" parent="tl_C-uJfs4DL0yEq4bah-2">
          <mxGeometry x="40" y="315" width="80" height="80" as="geometry" />
        </mxCell>
        <mxCell id="tl_C-uJfs4DL0yEq4bah-45" value="进入执行阶段" style="ellipse;whiteSpace=wrap;html=1;" vertex="1" parent="tl_C-uJfs4DL0yEq4bah-2">
          <mxGeometry x="40" y="460" width="80" height="80" as="geometry" />
        </mxCell>
        <mxCell id="tl_C-uJfs4DL0yEq4bah-74" value="通过" style="edgeStyle=orthogonalEdgeStyle;rounded=0;orthogonalLoop=1;jettySize=auto;html=1;exitX=0.5;exitY=1;exitDx=0;exitDy=0;exitPerimeter=0;entryX=0.5;entryY=0;entryDx=0;entryDy=0;" edge="1" parent="tl_C-uJfs4DL0yEq4bah-2" source="tl_C-uJfs4DL0yEq4bah-61" target="tl_C-uJfs4DL0yEq4bah-72">
          <mxGeometry relative="1" as="geometry" />
        </mxCell>
        <mxCell id="tl_C-uJfs4DL0yEq4bah-61" value="审批" style="strokeWidth=2;html=1;shape=mxgraph.flowchart.decision;whiteSpace=wrap;" vertex="1" parent="tl_C-uJfs4DL0yEq4bah-2">
          <mxGeometry x="30" y="870" width="100" height="100" as="geometry" />
        </mxCell>
        <mxCell id="tl_C-uJfs4DL0yEq4bah-72" value="完成" style="ellipse;whiteSpace=wrap;html=1;aspect=fixed;" vertex="1" parent="tl_C-uJfs4DL0yEq4bah-2">
          <mxGeometry x="40" y="1040" width="80" height="80" as="geometry" />
        </mxCell>
        <mxCell id="tl_C-uJfs4DL0yEq4bah-7" value="各部门主任" style="swimlane;html=1;startSize=20;" vertex="1" parent="tl_C-uJfs4DL0yEq4bah-1">
          <mxGeometry x="160" y="20" width="160" height="1170" as="geometry" />
        </mxCell>
        <mxCell id="tl_C-uJfs4DL0yEq4bah-11" value="审批" style="strokeWidth=2;html=1;shape=mxgraph.flowchart.decision;whiteSpace=wrap;" vertex="1" parent="tl_C-uJfs4DL0yEq4bah-7">
          <mxGeometry x="30" y="305" width="100" height="100" as="geometry" />
        </mxCell>
        <mxCell id="tl_C-uJfs4DL0yEq4bah-58" value="通过" style="edgeStyle=orthogonalEdgeStyle;rounded=0;orthogonalLoop=1;jettySize=auto;html=1;exitX=0.5;exitY=1;exitDx=0;exitDy=0;exitPerimeter=0;entryX=0.5;entryY=0;entryDx=0;entryDy=0;" edge="1" parent="tl_C-uJfs4DL0yEq4bah-7" source="tl_C-uJfs4DL0yEq4bah-55" target="tl_C-uJfs4DL0yEq4bah-57">
          <mxGeometry relative="1" as="geometry" />
        </mxCell>
        <mxCell id="tl_C-uJfs4DL0yEq4bah-55" value="审批" style="strokeWidth=2;html=1;shape=mxgraph.flowchart.decision;whiteSpace=wrap;" vertex="1" parent="tl_C-uJfs4DL0yEq4bah-7">
          <mxGeometry x="30" y="540" width="100" height="100" as="geometry" />
        </mxCell>
        <mxCell id="tl_C-uJfs4DL0yEq4bah-57" value="完成" style="ellipse;whiteSpace=wrap;html=1;aspect=fixed;" vertex="1" parent="tl_C-uJfs4DL0yEq4bah-7">
          <mxGeometry x="40" y="690" width="80" height="80" as="geometry" />
        </mxCell>
        <mxCell id="tl_C-uJfs4DL0yEq4bah-60" value="审批" style="strokeWidth=2;html=1;shape=mxgraph.flowchart.decision;whiteSpace=wrap;" vertex="1" parent="tl_C-uJfs4DL0yEq4bah-7">
          <mxGeometry x="30" y="870" width="100" height="100" as="geometry" />
        </mxCell>
        <mxCell id="tl_C-uJfs4DL0yEq4bah-14" value="各部门专责" style="swimlane;html=1;startSize=20;" vertex="1" parent="tl_C-uJfs4DL0yEq4bah-1">
          <mxGeometry x="320" y="20" width="160" height="1170" as="geometry" />
        </mxCell>
        <mxCell id="tl_C-uJfs4DL0yEq4bah-15" value="提交子主题（子任务）" style="rounded=1;whiteSpace=wrap;html=1;absoluteArcSize=1;arcSize=14;strokeWidth=2;" vertex="1" parent="tl_C-uJfs4DL0yEq4bah-14">
          <mxGeometry x="30" y="185" width="100" height="70" as="geometry" />
        </mxCell>
        <mxCell id="tl_C-uJfs4DL0yEq4bah-48" value="提交进度报告" style="rounded=1;whiteSpace=wrap;html=1;absoluteArcSize=1;arcSize=14;strokeWidth=2;" vertex="1" parent="tl_C-uJfs4DL0yEq4bah-14">
          <mxGeometry x="40" y="465" width="100" height="70" as="geometry" />
        </mxCell>
        <mxCell id="tl_C-uJfs4DL0yEq4bah-59" value="提交完结报告" style="rounded=1;whiteSpace=wrap;html=1;absoluteArcSize=1;arcSize=14;strokeWidth=2;" vertex="1" parent="tl_C-uJfs4DL0yEq4bah-14">
          <mxGeometry x="40" y="750" width="100" height="70" as="geometry" />
        </mxCell>
        <mxCell id="tl_C-uJfs4DL0yEq4bah-22" style="edgeStyle=orthogonalEdgeStyle;rounded=0;orthogonalLoop=1;jettySize=auto;html=1;exitX=1;exitY=0.5;exitDx=0;exitDy=0;exitPerimeter=0;entryX=0;entryY=0.5;entryDx=0;entryDy=0;" edge="1" parent="tl_C-uJfs4DL0yEq4bah-1" source="tl_C-uJfs4DL0yEq4bah-5" target="tl_C-uJfs4DL0yEq4bah-15">
          <mxGeometry relative="1" as="geometry">
            <mxPoint x="190" y="240" as="targetPoint" />
          </mxGeometry>
        </mxCell>
        <mxCell id="tl_C-uJfs4DL0yEq4bah-24" style="edgeStyle=orthogonalEdgeStyle;rounded=0;orthogonalLoop=1;jettySize=auto;html=1;exitX=0.5;exitY=1;exitDx=0;exitDy=0;entryX=1;entryY=0.5;entryDx=0;entryDy=0;entryPerimeter=0;" edge="1" parent="tl_C-uJfs4DL0yEq4bah-1" source="tl_C-uJfs4DL0yEq4bah-15" target="tl_C-uJfs4DL0yEq4bah-11">
          <mxGeometry relative="1" as="geometry" />
        </mxCell>
        <mxCell id="tl_C-uJfs4DL0yEq4bah-25" style="edgeStyle=orthogonalEdgeStyle;rounded=0;orthogonalLoop=1;jettySize=auto;html=1;exitX=0.5;exitY=0;exitDx=0;exitDy=0;exitPerimeter=0;entryX=0.5;entryY=1;entryDx=0;entryDy=0;fontColor=#FF3333;fillColor=#e51400;strokeColor=#B20000;" edge="1" parent="tl_C-uJfs4DL0yEq4bah-1" source="tl_C-uJfs4DL0yEq4bah-11" target="tl_C-uJfs4DL0yEq4bah-15">
          <mxGeometry relative="1" as="geometry" />
        </mxCell>
        <mxCell id="tl_C-uJfs4DL0yEq4bah-26" value="驳回" style="edgeLabel;html=1;align=center;verticalAlign=middle;resizable=0;points=[];" vertex="1" connectable="0" parent="tl_C-uJfs4DL0yEq4bah-25">
          <mxGeometry x="-0.0952" y="3" relative="1" as="geometry">
            <mxPoint as="offset" />
          </mxGeometry>
        </mxCell>
        <mxCell id="tl_C-uJfs4DL0yEq4bah-9" value="" style="edgeStyle=orthogonalEdgeStyle;rounded=0;orthogonalLoop=1;jettySize=auto;html=1;entryX=1;entryY=0.5;entryDx=0;entryDy=0;" edge="1" parent="tl_C-uJfs4DL0yEq4bah-1" source="tl_C-uJfs4DL0yEq4bah-11">
          <mxGeometry relative="1" as="geometry">
            <mxPoint x="120" y="375" as="targetPoint" />
          </mxGeometry>
        </mxCell>
        <mxCell id="tl_C-uJfs4DL0yEq4bah-10" value="通过" style="edgeLabel;html=1;align=center;verticalAlign=middle;resizable=0;points=[];" vertex="1" connectable="0" parent="tl_C-uJfs4DL0yEq4bah-9">
          <mxGeometry x="-0.2667" y="-1" relative="1" as="geometry">
            <mxPoint as="offset" />
          </mxGeometry>
        </mxCell>
        <mxCell id="tl_C-uJfs4DL0yEq4bah-51" style="edgeStyle=orthogonalEdgeStyle;rounded=0;orthogonalLoop=1;jettySize=auto;html=1;exitX=1;exitY=0.5;exitDx=0;exitDy=0;entryX=0;entryY=0.5;entryDx=0;entryDy=0;" edge="1" parent="tl_C-uJfs4DL0yEq4bah-1" source="tl_C-uJfs4DL0yEq4bah-45" target="tl_C-uJfs4DL0yEq4bah-48">
          <mxGeometry relative="1" as="geometry">
            <mxPoint x="280" y="530" as="targetPoint" />
          </mxGeometry>
        </mxCell>
        <mxCell id="tl_C-uJfs4DL0yEq4bah-56" style="edgeStyle=orthogonalEdgeStyle;rounded=0;orthogonalLoop=1;jettySize=auto;html=1;exitX=0.5;exitY=1;exitDx=0;exitDy=0;entryX=1;entryY=0.5;entryDx=0;entryDy=0;entryPerimeter=0;" edge="1" parent="tl_C-uJfs4DL0yEq4bah-1" source="tl_C-uJfs4DL0yEq4bah-48" target="tl_C-uJfs4DL0yEq4bah-55">
          <mxGeometry relative="1" as="geometry" />
        </mxCell>
        <mxCell id="tl_C-uJfs4DL0yEq4bah-62" style="edgeStyle=orthogonalEdgeStyle;rounded=0;orthogonalLoop=1;jettySize=auto;html=1;exitX=0.5;exitY=1;exitDx=0;exitDy=0;entryX=1;entryY=0.5;entryDx=0;entryDy=0;entryPerimeter=0;" edge="1" parent="tl_C-uJfs4DL0yEq4bah-1" source="tl_C-uJfs4DL0yEq4bah-59" target="tl_C-uJfs4DL0yEq4bah-60">
          <mxGeometry relative="1" as="geometry" />
        </mxCell>
        <mxCell id="tl_C-uJfs4DL0yEq4bah-63" value="通过" style="edgeStyle=orthogonalEdgeStyle;rounded=0;orthogonalLoop=1;jettySize=auto;html=1;exitX=0;exitY=0.5;exitDx=0;exitDy=0;exitPerimeter=0;entryX=1;entryY=0.5;entryDx=0;entryDy=0;entryPerimeter=0;" edge="1" parent="tl_C-uJfs4DL0yEq4bah-1" source="tl_C-uJfs4DL0yEq4bah-60" target="tl_C-uJfs4DL0yEq4bah-61">
          <mxGeometry relative="1" as="geometry" />
        </mxCell>
        <mxCell id="tl_C-uJfs4DL0yEq4bah-76" style="edgeStyle=orthogonalEdgeStyle;rounded=0;orthogonalLoop=1;jettySize=auto;html=1;exitX=0.5;exitY=0;exitDx=0;exitDy=0;exitPerimeter=0;entryX=0;entryY=0.75;entryDx=0;entryDy=0;fillColor=#e51400;strokeColor=#B20000;" edge="1" parent="tl_C-uJfs4DL0yEq4bah-1" source="tl_C-uJfs4DL0yEq4bah-55" target="tl_C-uJfs4DL0yEq4bah-48">
          <mxGeometry relative="1" as="geometry" />
        </mxCell>
        <mxCell id="tl_C-uJfs4DL0yEq4bah-77" value="驳回" style="edgeLabel;html=1;align=center;verticalAlign=middle;resizable=0;points=[];" vertex="1" connectable="0" parent="tl_C-uJfs4DL0yEq4bah-76">
          <mxGeometry x="0.3123" y="3" relative="1" as="geometry">
            <mxPoint y="1" as="offset" />
          </mxGeometry>
        </mxCell>
        <mxCell id="tl_C-uJfs4DL0yEq4bah-79" value="驳回" style="edgeStyle=orthogonalEdgeStyle;rounded=0;orthogonalLoop=1;jettySize=auto;html=1;exitX=0.5;exitY=0;exitDx=0;exitDy=0;exitPerimeter=0;entryX=0;entryY=0.5;entryDx=0;entryDy=0;fillColor=#e51400;strokeColor=#B20000;" edge="1" parent="tl_C-uJfs4DL0yEq4bah-1" source="tl_C-uJfs4DL0yEq4bah-60" target="tl_C-uJfs4DL0yEq4bah-59">
          <mxGeometry relative="1" as="geometry" />
        </mxCell>
        <mxCell id="tl_C-uJfs4DL0yEq4bah-80" style="edgeStyle=orthogonalEdgeStyle;rounded=0;orthogonalLoop=1;jettySize=auto;html=1;exitX=0.5;exitY=0;exitDx=0;exitDy=0;exitPerimeter=0;entryX=0;entryY=0.5;entryDx=0;entryDy=0;fillColor=#e51400;strokeColor=#B20000;" edge="1" parent="tl_C-uJfs4DL0yEq4bah-1" source="tl_C-uJfs4DL0yEq4bah-61" target="tl_C-uJfs4DL0yEq4bah-59">
          <mxGeometry relative="1" as="geometry" />
        </mxCell>
      </root>
    </mxGraphModel>
  </diagram>
</mxfile>
